PathFileType	4	(X/Y/Z)	 s05c0401.trc
DataRate	CameraRate	NumFrames	NumMarkers	Units	OrigDataRate	OrigDataStartFrame	OrigNumFrames
200	200	4	50	mm	200	501	2000
Frame#	Time	racr			lacr			c7			jug			rlel			rdr			llel			ldr			s2			lic			ric			lasi			rasi			rpsi			lpsi			rgt			lgt			rth1			rth2			rth3			rth4			rlfc			rmfc			rsh1			rsh2			rsh3			rsh4			rlmal			rmmal			rcal			rtoe			rmt5			lth1			lth2			lth4			lth3			llfc			lmfc			lsh1			lsh2			lsh3			lsh4			llmal			lmmal			lcal			ltoe			lmt5			SBIKE			LBIKE			RBIKE			
		X1	Y1	Z1	X2	Y2	Z2	X3	Y3	Z3	X4	Y4	Z4	X5	Y5	Z5	X6	Y6	Z6	X7	Y7	Z7	X8	Y8	Z8	X9	Y9	Z9	X10	Y10	Z10	X11	Y11	Z11	X12	Y12	Z12	X13	Y13	Z13	X14	Y14	Z14	X15	Y15	Z15	X16	Y16	Z16	X17	Y17	Z17	X18	Y18	Z18	X19	Y19	Z19	X20	Y20	Z20	X21	Y21	Z21	X22	Y22	Z22	X23	Y23	Z23	X24	Y24	Z24	X25	Y25	Z25	X26	Y26	Z26	X27	Y27	Z27	X28	Y28	Z28	X29	Y29	Z29	X30	Y30	Z30	X31	Y31	Z31	X32	Y32	Z32	X33	Y33	Z33	X34	Y34	Z34	X35	Y35	Z35	X36	Y36	Z36	X37	Y37	Z37	X38	Y38	Z38	X39	Y39	Z39	X40	Y40	Z40	X41	Y41	Z41	X42	Y42	Z42	X43	Y43	Z43	X44	Y44	Z44	X45	Y45	Z45	X46	Y46	Z46	X47	Y47	Z47	X48	Y48	Z48	X49	Y49	Z49	X50	Y50	Z50	
501	2.5050	634.851332	1432.985710	-76.390084	620.839546	1463.793670	-373.158812	567.941248	1542.224584	-224.359821	583.126883	1369.033995	-231.756041	551.923743	1160.060934	55.417842	683.513736	971.531414	-32.130215	550.586775	1204.364702	-539.833950	685.049655	979.095563	-481.235764	49.344427	1220.800928	-263.529904	214.853292	1241.686322	-386.741548	201.908402	1205.250756	-119.132785	245.892468	1181.672555	-358.955952	236.079110	1145.965875	-153.464817	93.172403	1251.255411	-214.679504	95.005533	1270.263311	-299.752933	124.341355	1074.229668	-117.327378	132.398421	1152.368566	-445.167039	172.747097	967.572263	-99.083987	218.249263	890.972439	-101.988634	218.101397	802.953940	-109.826712	252.536422	901.554768	-112.727181	272.452842	662.385716	-136.182022	245.478633	656.199953	-239.739714	226.356703	565.046566	-97.791803	231.042861	477.118701	-106.537141	194.950364	399.134537	-103.947313	257.152646	473.662198	-135.474645	174.643205	262.272352	-107.888585	182.617272	277.182932	-192.215110	100.370417	229.132474	-147.443116	395.819345	199.744387	-151.942564	296.117616	179.252039	-83.189862	226.307662	1053.878339	-466.096433	307.073043	1023.968404	-463.523381	326.920163	1048.165952	-441.747227	363.565976	953.274348	-470.378999	453.770993	834.077201	-441.348353	432.874067	822.645797	-331.692711	337.406838	780.376577	-457.932537	276.997480	718.750567	-443.927364	191.414394	695.310926	-439.787206	295.028876	692.821015	-422.143272	91.304523	624.311593	-431.431262	127.712709	627.269450	-354.263179	18.596398	633.694671	-385.795253	229.333154	428.627728	-394.283490	129.928609	479.550418	-455.656111	-214.581859	915.780342	-268.000078	-43.500442	85.037734	-475.147448	-51.872015	80.130715	-77.533248	
502	2.5100	634.295259	1435.774094	-76.334348	620.119405	1465.702876	-374.232634	567.126628	1545.020698	-224.621369	582.900214	1371.936995	-232.068758	552.559834	1161.287661	54.481142	683.529205	971.598738	-31.815349	550.688415	1204.650140	-539.306117	684.837021	979.119395	-480.972599	50.588376	1220.651954	-263.486507	215.994997	1242.651994	-386.830043	203.286802	1206.039301	-119.022126	247.564201	1182.754247	-359.033964	237.942346	1146.720046	-153.261868	94.281007	1251.178558	-214.759664	95.999536	1270.348562	-299.730303	125.802868	1074.213092	-117.672981	134.245993	1152.987319	-445.272062	173.269070	967.185817	-99.162994	218.054306	890.084669	-101.831990	217.110245	802.184813	-109.868560	252.536496	900.344646	-112.305497	270.762379	661.563139	-136.108377	244.007126	655.402383	-239.593848	224.729047	564.477053	-97.691326	229.264280	476.389984	-106.480259	193.134905	398.526169	-103.772223	255.422880	472.923348	-135.287534	172.757344	261.661569	-107.877185	180.812652	276.534002	-192.141248	98.261136	229.158417	-147.373342	393.447210	197.009381	-151.987139	293.562078	177.559378	-83.258715	228.805084	1055.104994	-466.217856	309.736070	1025.471267	-463.401707	329.405775	1049.848500	-441.567173	366.554391	955.030609	-470.270002	456.976444	836.300080	-441.497008	436.076272	824.747959	-331.609358	340.745951	782.429579	-457.912470	280.347873	720.812211	-443.875780	194.773048	697.297627	-439.857324	298.397180	694.811685	-422.198133	94.689174	626.201565	-431.452745	131.232184	629.257342	-353.772290	21.951872	635.739023	-385.706585	232.327290	430.231156	-394.264677	133.008422	481.392427	-455.547731	-214.594859	915.763852	-267.995794	-43.500769	85.029173	-475.152435	-51.893887	80.326088	-77.360466	
503	2.5150	633.714198	1438.484979	-76.362228	619.462657	1467.637372	-375.314225	566.504040	1547.488137	-225.583802	582.718333	1374.716945	-232.407349	553.004002	1162.756109	53.624185	683.504642	971.715992	-31.461674	550.729023	1205.016942	-538.716462	684.662619	979.247658	-480.704960	51.737906	1220.564157	-263.479363	217.091210	1243.481226	-386.963464	204.630919	1206.609536	-118.994740	249.167078	1183.785491	-359.083662	239.809976	1147.358027	-152.971670	95.479153	1251.133775	-214.911273	96.954946	1270.365452	-299.619999	127.272553	1074.126049	-118.044405	136.060773	1153.613935	-445.375088	173.803151	966.763661	-99.251057	217.819405	889.230574	-101.685500	216.054245	801.372729	-109.993707	252.505828	899.153413	-111.954403	269.156215	660.789817	-136.059026	242.511279	654.666337	-239.453218	223.103687	563.867863	-97.573321	227.572801	475.894330	-106.365588	191.381798	398.009082	-103.691057	253.640977	472.314859	-135.290356	170.813536	261.127698	-107.800191	178.937535	275.951608	-192.078391	96.145129	229.197254	-147.307198	390.969108	194.373073	-152.024813	290.947895	175.750011	-83.262197	231.246836	1056.296965	-466.280162	312.265104	1027.134368	-463.339503	331.751373	1051.491777	-441.405809	369.441298	956.960648	-470.259744	460.170973	838.552612	-441.611830	440.148985	827.123264	-330.665290	344.249510	784.582294	-457.836574	283.747369	722.887601	-443.915097	198.209012	699.267837	-439.844564	301.803803	696.850827	-422.204084	98.111997	628.151238	-431.494464	134.552213	631.103387	-353.821195	25.403679	637.750671	-385.707330	235.386538	431.809976	-394.158187	136.163924	483.157125	-455.487543	-214.594782	915.769588	-267.992768	-43.508384	85.035539	-475.159805	-51.846833	80.122578	-77.536660	
504	2.5200	633.196113	1441.174386	-76.284193	618.648084	1469.546346	-376.288347	565.960790	1549.762261	-226.564277	582.559214	1377.392986	-232.785623	553.461231	1164.222653	52.619148	683.478645	971.847243	-31.051921	550.742029	1205.522912	-538.068869	684.488770	979.448073	-480.449930	52.950661	1220.495307	-263.495769	218.183618	1244.265967	-387.082763	206.039298	1207.061028	-119.025057	250.768487	1184.731536	-359.017194	241.615360	1147.884329	-152.736708	96.558733	1250.873383	-214.785838	97.895395	1270.349132	-299.602753	128.735043	1073.967846	-118.320979	137.856036	1154.173958	-445.410160	174.358969	966.412552	-99.383770	217.641472	888.503148	-101.546305	215.168849	800.533825	-110.011927	252.490774	898.054988	-111.611151	267.672898	660.093075	-136.017496	241.026008	654.012573	-239.351159	221.597606	563.348106	-97.489885	225.903810	475.313730	-106.396763	189.645472	397.526538	-103.652014	251.918903	471.758616	-135.224298	168.860226	260.664096	-107.739804	176.930957	276.224129	-192.590659	93.958044	229.462423	-147.284725	388.458855	191.935299	-152.081305	288.296570	174.100038	-83.336853	233.534347	1057.533943	-466.345342	314.719066	1028.599704	-463.338474	334.083520	1053.028446	-441.365385	372.240053	958.768290	-470.212471	463.344180	840.709104	-441.639568	443.084618	828.889058	-330.887988	347.619348	786.579008	-457.791628	287.162685	724.845900	-443.850305	201.601341	701.253474	-439.813036	305.232837	698.822333	-422.269676	101.547231	629.940021	-431.479246	138.061270	632.837823	-353.850156	28.881671	639.983986	-385.868604	238.436675	433.390515	-394.202005	139.377657	484.883531	-455.444296	-214.577591	915.792467	-267.990684	-43.495902	85.046748	-475.157325	-51.876878	80.139130	-77.527835	
